<svg id="sw-js-blob-svg" viewBox="0 0 100 100" xmlns="http://www.w3.org/2000/svg" version="1.1">
    <defs> 
        <linearGradient id="sw-gradient" x1="0" x2="1" y1="1" y2="0">
            <stop id="stop1" stop-color="rgba(247, 80, 73, 1)" offset="0%"></stop>
            <stop id="stop2" stop-color="rgba(94, 246, 255, 1)" offset="100%"></stop>
        </linearGradient>
    </defs>
    <path fill="url(#sw-gradient)" d="M8,-10.5C14.2,-10.3,25.8,-15.9,26.2,-15.1C26.5,-14.3,15.8,-7.2,10.6,-3C5.4,1.1,5.7,2.3,7.2,6.4C8.7,10.4,11.4,17.4,10.4,20C9.4,22.5,4.7,20.7,1.2,18.6C-2.3,16.5,-4.5,14.2,-11.5,15.1C-18.5,15.9,-30.2,20.1,-33.7,18.1C-37.1,16.1,-32.4,8.1,-29.6,1.6C-26.9,-4.9,-26.1,-9.8,-22.2,-11C-18.3,-12.2,-11.3,-9.9,-7.1,-11.2C-2.9,-12.5,-1.4,-17.5,-0.3,-17C0.9,-16.6,1.8,-10.7,8,-10.5Z" width="100%" height="100%" transform="translate(50 50)" stroke-width="0" style="transition: all 0.3s ease 0s;" stroke="url(#sw-gradient)"></path>
</svg>